<svg version="1" xmlns="http://www.w3.org/2000/svg" width="1365.333" height="1365.333" viewBox="0 0 1024.000000 1024.000000"><path d="M267.4 38.7c.6 3.4 2.3 14.4 3.1 19.8.4 2.2.8 5.1 1.1 6.5.2 1.4.7 4.5 1 7l.6 4.5-13.4 7.5c-7.3 4.1-15.5 8.6-18.1 10-5.9 3-6.9 2.6 17.3 6.5 9.6 1.6 17.8 3.1 18.2 3.5.4.3 2.4 9.1 4.4 19.5 2 10.5 4 19.3 4.3 19.7.3.4 4.7-7.3 9.8-17l9.1-17.7 3.9.1c3.3 0 8 .5 18.8 1.9 1.7.2 5.5.7 8.5 1.1 3 .3 6.5.8 7.8.9 1.2.2 2.2.1 2.2-.1s-6.3-6.8-14-14.6c-7.7-7.9-14-14.7-14-15.1 0-.4 1.6-4.3 3.6-8.5 5.8-12.3 9.5-20.4 11.5-24.9l1.8-4.2-18.7 9.4-18.6 9.3-2.7-2.7c-6.4-6.3-25.3-23.7-26.5-24.4-1.2-.7-1.3-.2-1 2zM753 43.3c-3 2.9-9.6 9-14.7 13.5l-9.2 8.4-18.6-9.7c-10.2-5.3-18.5-9.4-18.5-9.2 0 .2 1.9 4.4 4.1 9.3 2.3 4.9 6.1 13.3 8.5 18.6l4.3 9.8-14.5 14.3c-7.9 7.9-14.4 14.6-14.4 14.8 0 .3 2.6.2 5.8-.2 3.1-.4 8.6-1 12.2-1.4 3.6-.3 7.9-.8 9.5-1 1.7-.2 5.3-.6 8.2-.9l5.1-.5 9.3 18.5c5 10.1 9.3 18.3 9.5 18.1.2-.1 2.1-9 4.2-19.6 2.2-10.6 4.4-19.6 4.8-20.1.5-.4 7.7-1.8 15.9-3 14.4-2 19.2-2.8 22.5-3.5.8-.2 1.7-.4 2-.4.3-.1-6.8-4.3-15.6-9.4-8.9-5-17.1-9.9-18.2-10.7-2-1.5-2-1.6.8-17.5 3.5-20.1 3.9-23.5 3.1-23.5-.3 0-3.1 2.4-6.1 5.3zM411.7 189.8c-54.8 54.8-99.7 100-99.7 100.3 0 .5 44.6 45.5 52.8 53.2l2.9 2.8 10.4-8.3c19.8-15.9 42.9-28.5 66.4-36.1 9.3-3.1 26.4-7.4 31.5-8.1 1.9-.2 6-.8 9-1.2 6.9-1.1 44.2-1.2 53-.1 22.2 2.5 46.7 9.9 68.5 20.7 16.8 8.2 35.6 20.6 46.5 30.7 1.4 1.3 2.8 2.2 3.2 2.1.7-.3 17.2-16.5 42.8-42.2l13.4-13.6-99.9-100C557.5 135 512.3 90 512 90c-.3 0-45.4 44.9-100.3 99.8zM146.1 181.8c-1.7 2.6-5.4 7.8-8.2 11.7-2.7 3.8-6.6 9.3-8.5 12.1l-3.5 5.2-12.7-3.5c-7-1.9-13.6-3.6-14.7-3.8-1.1-.3-4.3-1.1-7-2-6.4-1.9-6.8-1.9-5.1.2 2.1 2.6 22.1 29.6 22.9 30.9.3.6-.6 3.1-2.2 5.5s-6.5 10-11 16.9c-4.5 6.8-7.8 12.6-7.4 12.7.4.2 9.3-2.6 19.6-6l18.8-6.4 7.2 9.1c4 5 7.9 10 8.9 11.1.9 1.1 3.1 3.8 5 6 1.8 2.3 3.7 4.3 4.3 4.5.5.3.8-7.2.6-19.6l-.2-20.2 14.3-5.5c7.9-3 16.4-6.3 19.1-7.2 2.6-1 4.7-2 4.7-2.4 0-.3-8.4-3.2-18.8-6.4-10.3-3.2-19-6.1-19.4-6.5-.4-.4-.9-5.9-1.3-12.2-.9-19-1.5-28.4-1.9-28.7-.1-.2-1.7 1.8-3.5 4.5zM875.9 183.1c-.1 2.4-.3 5.3-.4 6.4-.1 1.1-.6 7.7-.9 14.7-.9 14.3-1 15.5-1.8 16.3-.3.3-9 3-19.4 6.1-10.4 3.1-19.1 5.8-19.3 6-.2.2.9.8 2.5 1.4 1.6.6 3.8 1.5 4.9 2 1.1.5 8.3 3.4 16 6.4l14 5.4-.2 21.2c0 11.7.2 20.8.6 20.4.4-.5 6.5-7.8 13.5-16.2 7-8.3 12.8-15.2 12.9-15.2.1 0 8.9 3.1 19.5 6.9 10.5 3.8 19.2 6.7 19.2 6.4 0-.4-12.5-20.5-18.5-29.8l-3.3-4.9 7.6-10.1c4.2-5.5 10-13 12.9-16.6 3.3-4.3 4.6-6.6 3.5-6.3-.9.2-4.6 1.1-8.2 2-3.6.9-7.2 1.7-8 1.9l-8 2c-3.6.9-7.4 1.9-8.5 2.2-5.7 1.5-6.8 1-11.4-5.7-2.5-3.6-7.8-11.2-11.8-16.9l-7.3-10.5-.1 4.5zM196.5 405l-100 100 100.3 100.3L297 705.5l100.2-100.2L497.5 505l-100-100c-55-55-100.2-100-100.5-100-.3 0-45.5 45-100.5 100zM699.3 333.2l-28.1 28.3 5 6c21.4 25.7 37.9 58.8 44.4 88.8 1.8 8.2 3.3 17 3.9 21.7.3 3 .7 7.1 1 9 .6 4.9.6 28.5 0 34.5-.3 2.7-.7 7.2-1 10-1.3 13.9-7.9 40-13.5 53-9.9 23.2-21.1 41.7-35.7 59.1l-4.2 5 28.4 28.4 28.5 28.5 100.3-100.3L928.5 505l-100-100c-55-55-100.2-100-100.5-100-.3 0-13.2 12.7-28.7 28.2zM45.5 384.7c-.3 2.7-.9 6.4-1.1 8.3-.3 1.9-.7 5.5-1 8-.2 2.5-.7 6.3-1 8.5-.8 4.8-1.1 7.5-1.3 9.6-.1 1.2-4.1 2.5-16.3 5.3-26 6.1-24.3 5.5-22.2 7.1 1.1.8 2.2 1.5 2.6 1.5.3 0 5.5 2.3 11.5 5.1 5.9 2.8 13.2 6.2 16.1 7.5 2.8 1.4 5.2 3 5.2 3.7 0 .7-.5 5.5-1 10.7-.5 5.2-1.2 13.8-1.6 19-.3 5.2-.9 9.9-1.2 10.5-.6 1.2 21.5-21.8 25.2-26.3 1.5-1.7 3.4-3.2 4.1-3.2.7 0 9.3 3.4 19 7.5 9.8 4.1 18.2 7.5 18.6 7.5.5 0-.4-2.1-2-4.8-1.5-2.6-6.1-10.7-10-18L81.9 439l2.1-2.8c1.2-1.5 3.8-4.5 5.8-6.7s6.4-7.2 9.6-11c3.3-3.9 6.9-8 7.9-9.2l2-2.2-2.4.4c-1.3.3-6.2 1.2-10.9 2.1-4.7.9-9.4 1.8-10.5 2-1.1.2-3.1.6-4.5.9-1.4.3-3.5.7-4.6.9-9.3 1.9-8.2 2.6-15.4-9.5-3.6-6.1-7-11.8-7.5-12.7-.6-.9-2.3-3.8-3.9-6.5-1.5-2.6-2.9-4.7-3.1-4.7-.2 0-.7 2.1-1 4.7zM970.4 393.2c-3.3 5.6-6.8 11.8-7.9 13.7-1.1 2-3.1 5.3-4.4 7.5-2.6 4.1-2.1 4-12.6 2-9.4-1.8-30-5.2-30.3-5-.1.2.8 1.4 2 2.8 1.3 1.3 5.5 6 9.3 10.3 3.9 4.3 8.9 9.9 11.2 12.4 2.3 2.5 4.3 5 4.3 5.4 0 .9-12.4 24.9-16.7 32.4-1.4 2.4-2.2 4.3-1.9 4.3.3 0 8.1-3.3 17.4-7.4 9.2-4 17.6-7.6 18.8-8 1.7-.5 4.5 1.9 16.3 14.1l14.3 14.7-.7-9.4c-.4-5.2-.9-10.4-1.1-11.5-.2-1-.6-5.1-1-9-.3-3.8-.7-8-.9-9.3-.3-2 1.5-3.1 18.2-11.3 10.2-5 18.3-9.2 18-9.5-.2-.3-1.5-.7-2.8-.9-1.3-.3-5.5-1.2-9.4-2-3.8-.9-11.6-2.5-17.2-3.7-11.4-2.3-10.6-1.5-11.9-12.3-.3-2.8-.8-6.4-1-8-.3-1.7-.7-4.6-1-6.5-.9-7.1-2.3-15.3-2.7-15.7-.3-.2-3.1 4.2-6.3 9.9zM412 619.4c-54.7 54.6-99.6 99.8-99.7 100.2-.2.5 44.7 45.9 99.7 100.9l100 100 100.2-100.3L712.5 720l-100-100c-55-55-100.2-100-100.6-100-.3 0-45.2 44.7-99.9 99.4zM111.5 608.5c-3.3 2.5-6.4 4.8-7 5.3-.5.4-3.2 2.4-6 4.5-2.7 2-5.4 4-6 4.5-.5.4-2.4 1.9-4.2 3.2l-3.2 2.3-4.8-3c-2.6-1.6-10.5-6.6-17.5-11.1-7.1-4.5-12.8-8-12.8-7.8 0 .1 3 9 6.6 19.6 5.4 15.8 6.3 19.5 5.2 20.5-.7.7-8 6.7-16.1 13.4L30.8 672l21-.3 21-.3 7.3 19.2c4.1 10.6 7.7 19 8 18.6.3-.4 3.1-9.3 6.3-19.8 3.2-10.5 6.4-19.1 7-19.1 13.5-.5 39.8-2.1 40.1-2.5.2-.2-7.1-5.5-16.2-11.7-9-6.3-16.6-11.8-16.8-12.2-.3-.4 1.1-6.7 3.1-14 1.9-7.4 3.6-14.1 3.8-14.9.2-.8.9-3.5 1.6-5.9.6-2.3 1-4.4.8-4.6-.2-.2-3 1.6-6.3 4zM905 606.2c0 .2 2.2 9.3 5 20.2 2.7 11 4.8 20.1 4.7 20.1-7.1 4.6-33.6 22.9-33.4 23.1.2.3 10.4 1.2 21.7 1.9 11.2.7 18.4 1.6 19.1 2.3.5.7 5.4 17.1 8.5 29 3 11.3 2.9 11.3 11.3-9.4l7.7-18.9 13.5.3c7.3.2 16.7.5 20.6.6 4 .2 7 0 6.8-.5-.3-.4-7.1-6.2-15.1-12.9-8-6.8-14.8-12.8-15-13.5-.3-.6 2.5-9.4 6.1-19.4 3.7-10 6.5-18.5 6.2-18.7-.2-.2-8.1 4.3-17.6 10.2-12 7.4-17.5 10.3-18.4 9.7-.6-.6-5.5-4.4-10.7-8.5-10.4-8.1-21-16-21-15.6zM206.1 791.5l-8.3 18.4-5.2-.4c-2.8-.2-8.2-.7-12.1-1-3.8-.3-10.8-.8-15.5-1.1l-8.5-.5 6.1 5.8c3.4 3.2 10.2 9.6 15.2 14.3l9 8.5-6.5 15.5c-3.6 8.5-7.2 17-8 18.8-.8 1.9-1.3 3.5-1.1 3.6.1.2 8.1-4.1 17.7-9.5 9.6-5.5 17.9-9.9 18.5-9.9.6 0 2.9 1.7 5.2 3.8 2.2 2 6.5 5.7 9.4 8.2 3 2.5 7.2 6.1 9.5 8 8.5 7.2 7.8 7 7.1 2.5-.4-2.2-1.3-6.8-2.1-10.2-.8-3.5-1.7-7.8-2-9.6-1-5.7-2.4-13.1-3-15.2-.5-1.9.8-3.1 7.5-6.7.8-.5 4.7-2.8 8.5-5.3 3.9-2.4 9.6-5.9 12.8-7.7 5.9-3.4 7-4.8 4-4.9-2.4 0-9-.7-12.8-1.3-1.6-.3-5.7-.8-9-1.1-3.3-.3-6.9-.8-8-1-1.1-.2-3.6-.4-5.6-.4l-3.5-.1-4.4-17.8c-5.2-20.9-4.7-18.8-4.9-20.7 0-.8-.4-1.5-.8-1.5-.5.1-4.6 8.4-9.2 18.5zM805.7 779.1c-.8 3-3.2 11.9-5.2 19.9-2 8-3.8 14.6-4 14.8-.5.5-5 1.2-12.2 1.7-4 .4-8.1.8-9 .9-3 .6-17.7 2-18.5 1.8-1.6-.4-.7 1.9 1 2.5.9.4 6.2 3.6 11.7 7.2 5.5 3.5 12.4 8 15.4 9.9 5 3.2 5.3 3.6 4.6 6.6-.3 1.7-.9 4.2-1.1 5.6-.3 1.4-2 9.1-3.8 17.2-2 9.2-2.8 14.5-2.1 14 .7-.4 3.4-2.6 6.1-4.9 11.5-9.8 22-18.3 23.9-19.3 1.8-.9 3.8-.1 13.5 5.6 6.3 3.7 13.5 7.8 16 9.2 2.5 1.3 5.1 2.9 5.8 3.5.7.5 1.4.8 1.6.6.2-.2-3-8.9-7.2-19.3l-7.5-18.9 4.4-4.1c7.9-7.3 20.4-18.5 23.2-20.6 2.9-2.3 3.7-4.6 1.2-3.6-1.5.5-24.3 1.9-34.3 2l-5.3.1-3.8-8.6c-7.3-16.2-9.9-22.2-11.5-26.1l-1.4-3.1-1.5 5.4zM379.3 878.7c.3.5.8 7.1 1.2 14.8.3 7.7.8 16.5 1 19.6l.4 5.6-17.7 7.7c-9.7 4.2-18.3 8-19 8.5-.8.5 2 1.6 7.5 3 4.8 1.3 12.6 3.3 17.3 4.6 4.7 1.2 9.7 2.6 11.3 2.9 1.9.4 2.7 1.3 2.9 2.9.3 4.7.5 6.5 2.3 25.7.3 3 .7 7 .9 8.8.1 1.7.5 3.4.8 3.7.3.3 2-1.8 3.9-4.7 4.5-7.2 18.1-28.2 18.5-28.7.2-.3 2.8.1 5.7.8 2.8.7 9.3 2.1 14.2 3.2 5 1.1 9.9 2.2 11 2.5 1.1.3 3.8.8 6 1.1l4 .6-3-3.5c-1.7-1.9-3.7-4.4-4.5-5.4-.8-1.1-5.4-6.7-10.1-12.5l-8.7-10.5 5.5-9.4c3-5.2 7.7-13.2 10.4-17.6 2.7-4.5 4.9-8.4 4.9-8.7 0-.4-23.4 8.3-31.5 11.8-7.1 3.1-6.5 3.4-17.6-9.2-16.1-18.2-16.2-18.3-17.1-18.3-.5 0-.7.3-.5.7zM631.8 889.2c-5.2 5.7-11.3 12.4-13.7 14.9l-4.2 4.7-18.4-7.4c-10.2-4.1-19-7.4-19.6-7.4-.6 0-.1 1.3 1 2.9 1.2 1.6 2.1 3.1 2.1 3.3 0 .3 3.8 7 8.4 15l8.3 14.4-2.5 3c-1.3 1.6-4.3 5.1-6.7 7.9-5.5 6.5-14.7 17.6-16.2 19.6-1.2 1.4-.6 1.5 5.9.2 4-.7 8.8-1.7 10.8-2.3 1.9-.5 5.1-1.1 7-1.4 1.9-.3 6.3-1.2 9.7-1.9l6.1-1.3 2.9 4.4c4.6 7.3 12 19.3 15.4 25 3.1 5.3 4.1 5.8 4.4 2.4.1-.9.6-5 1-9.1s.8-8.2 1-9c.5-2.8 1.9-17.6 1.7-18.4-.3-1.2 3.2-2.3 22.1-6.9 9.7-2.3 17.7-4.5 17.7-4.8 0-.4-8.3-4.4-18.5-9l-18.4-8.3.4-4.6c.2-2.5.6-8.2.9-12.6.3-4.4.8-11.5 1.2-15.8.3-4.2.3-7.7.1-7.7-.3 0-4.7 4.6-9.9 10.2z"/></svg>